<svg width="77" height="40" viewBox="0 0 1024 1024" fill="none" xmlns="http://www.w3.org/2000/svg">
  <g transform="translate(0.000000,1024.000000) scale(0.100000,-0.100000)" fill="#c62828" stroke="none">
    <path d="M5375 9082 c-110 -39 -321 -173 -450 -286 -290 -256 -440 -547 -500
    -971 -19 -132 -36 -321 -45 -485 -17 -320 -35 -432 -91 -567 -51 -122 -109
    -163 -183 -128 -118 56 -162 210 -130 450 24 183 29 249 27 385 -2 225 -64
    443 -168 600 -51 76 -72 93 -113 88 -29 -3 -31 -7 -56 -143 -22 -114 -73 -209
    -235 -435 -209 -291 -274 -411 -338 -618 -24 -76 -27 -104 -27 -217 0 -156 19
    -257 76 -405 58 -152 71 -205 71 -295 1 -140 -46 -251 -120 -282 -31 -13 -38
    -12 -65 4 -48 28 -66 61 -89 158 -33 145 -59 222 -105 308 -178 335 -219 443
    -237 620 -12 122 -2 243 34 385 15 58 19 95 14 128 -14 97 -87 77 -240 -68
    -172 -163 -275 -309 -327 -468 -31 -94 -32 -97 -32 -305 -1 -216 5 -321 29
    -485 7 -52 12 -156 11 -230 -2 -126 -4 -140 -34 -215 -39 -98 -90 -178 -162
    -252 -73 -75 -127 -113 -160 -113 -71 0 -102 175 -60 351 31 131 35 170 34
    289 -1 65 -7 130 -18 170 -20 75 -81 203 -138 293 -73 114 -100 130 -136 79
    -17 -23 -20 -43 -19 -127 0 -65 -5 -123 -16 -165 -25 -92 -100 -239 -217 -425
    -128 -202 -219 -386 -270 -541 -78 -239 -101 -397 -81 -556 94 -755 94 -766
    41 -973 -65 -255 -52 -479 43 -718 72 -183 165 -316 347 -498 402 -403 1048
    -723 1890 -934 144 -36 329 -78 425 -95 28 -5 91 -16 140 -25 488 -86 1244
    -133 1720 -106 279 16 665 49 795 67 58 9 121 17 140 20 19 3 98 15 175 29
    607 105 1146 269 1590 484 592 288 963 619 1183 1057 177 354 208 811 79 1181
    -13 38 -66 160 -116 272 -124 271 -144 350 -138 531 3 74 11 210 18 303 15
    188 4 378 -30 543 -35 169 -137 344 -293 507 -73 75 -100 97 -121 97 -41 0
    -46 -23 -30 -140 25 -188 -7 -354 -114 -595 -58 -132 -121 -231 -182 -288
    -100 -94 -159 -72 -169 63 -3 38 5 95 26 185 60 256 67 363 32 500 -19 75
    -105 261 -148 321 -45 63 -185 303 -221 379 -93 195 -96 209 -96 420 0 105 -4
    196 -8 203 -14 21 -69 14 -110 -15 -57 -40 -163 -176 -207 -268 -61 -128 -72
    -200 -76 -510 -5 -327 -15 -429 -53 -533 -66 -183 -171 -286 -287 -285 -57 0
    -98 20 -129 61 -17 23 -20 42 -19 122 1 82 6 112 42 220 81 249 102 347 102
    485 0 226 -79 486 -201 666 -23 35 -91 127 -149 204 -219 288 -268 388 -305
    629 -12 76 -97 124 -137 79 -21 -24 -91 -163 -117 -234 -52 -138 -63 -313 -31
    -481 68 -361 77 -483 41 -599 -38 -121 -131 -237 -170 -212 -40 26 -77 131
    -106 310 -34 210 -102 362 -274 620 -156 233 -209 362 -232 572 -20 179 19
    472 95 716 29 93 32 113 21 130 -16 26 -49 29 -110 7z m-383 -1264 c-6 -205
    18 -286 167 -558 106 -194 179 -355 205 -455 12 -46 15 -95 12 -215 -5 -158
    -5 -158 -80 -485 -48 -208 -44 -312 16 -427 28 -53 104 -138 156 -174 40 -28
    81 -35 118 -19 19 8 34 15 34 17 0 2 9 44 19 95 24 113 67 197 144 280 64 68
    127 110 290 193 141 71 267 166 325 244 65 88 99 167 134 310 17 69 34 126 39
    126 21 0 32 -62 32 -175 1 -139 -20 -231 -104 -475 -123 -356 -132 -515 -36
    -656 63 -94 220 -172 379 -189 191 -19 431 53 598 181 221 168 335 400 343
    696 1 42 5 74 9 72 15 -9 68 -200 79 -283 11 -79 8 -270 -5 -331 -3 -14 -8
    -38 -12 -55 -3 -16 -19 -88 -36 -160 -34 -149 -36 -261 -3 -328 48 -101 169
    -189 302 -218 47 -11 64 -10 122 5 97 26 205 86 311 173 74 61 92 72 86 52
    -31 -101 -38 -166 -40 -339 l-1 -185 40 -90 c48 -110 75 -154 127 -211 47 -51
    42 -57 -11 -16 -58 46 -268 184 -371 244 -238 139 -535 270 -860 378 -277 93
    -479 144 -905 230 -179 35 -581 86 -835 105 -346 25 -963 32 -1260 14 -763
    -48 -1501 -191 -2064 -401 -474 -177 -815 -376 -1177 -688 -59 -51 -62 -52
    -36 -17 39 51 91 167 112 247 36 135 18 354 -47 558 -16 51 -28 98 -26 104 2
    6 38 -35 79 -92 93 -130 131 -158 233 -173 111 -16 217 1 308 50 95 51 215
    149 283 231 65 78 148 211 171 274 28 77 81 271 94 344 12 69 10 257 -4 314
    -4 14 -9 53 -13 87 -6 60 -5 62 16 56 29 -7 81 -73 120 -150 39 -79 67 -180
    86 -317 41 -295 84 -380 223 -444 49 -22 64 -24 136 -19 146 10 282 70 398
    176 179 164 286 426 258 630 -12 88 -30 147 -89 301 -57 144 -75 242 -68 365
    6 110 30 204 76 299 l29 61 1 -90 c4 -435 279 -851 610 -921 198 -42 383 4
    499 124 163 168 235 533 173 877 -13 71 -25 183 -28 275 -5 143 -3 170 27 345
    17 105 39 213 47 240 14 45 40 105 46 105 1 0 0 -55 -1 -122z m513 -2889 c116
    -6 230 -12 255 -14 460 -44 682 -75 1010 -141 507 -103 922 -241 1305 -434
    396 -199 686 -431 842 -672 229 -354 156 -715 -222 -1093 -461 -463 -1381
    -827 -2460 -975 -403 -55 -701 -73 -1195 -74 -369 0 -448 3 -730 30 -992 96
    -1842 340 -2422 695 -375 230 -626 498 -728 779 -97 264 -46 494 166 750 336
    405 1011 752 1860 956 186 44 301 68 429 88 55 9 123 21 150 26 136 26 530 64
    835 80 352 19 501 18 905 -1z"/>
    <path d="M4570 4628 c-58 -4 -190 -9 -295 -12 -316 -9 -311 -6 -302 -165 2
    -54 11 -112 19 -127 13 -28 16 -29 98 -32 46 -2 89 -7 96 -13 13 -11 20 -156
    30 -629 3 -162 9 -374 13 -470 4 -96 6 -211 3 -255 -5 -114 -5 -114 146 -117
    120 -3 124 -2 143 21 11 13 17 31 15 40 -4 15 -7 89 -22 561 -3 107 -8 198
    -10 201 -2 4 -6 517 -4 620 0 33 28 45 125 54 39 4 76 12 83 18 9 7 13 41 12
    121 -2 118 -12 182 -33 188 -6 2 -59 0 -117 -4z"/>
    <path d="M5261 4612 c-7 -13 -13 -242 -16 -653 -3 -349 -10 -690 -15 -759 -19
    -253 -20 -320 -5 -357 l15 -35 126 4 c113 3 127 5 137 23 7 12 12 81 12 180 1
    88 5 248 9 355 7 180 9 196 29 213 11 10 32 17 46 17 14 -1 60 -2 102 -1 63 1
    78 4 84 18 3 10 11 69 16 132 8 91 7 117 -3 127 -8 8 -57 17 -127 22 -112 9
    -137 19 -127 49 3 6 8 89 12 183 l7 173 71 -6 c39 -4 103 -9 142 -13 69 -6 72
    -6 85 17 16 30 26 286 12 300 -15 15 -40 17 -330 24 -263 6 -272 6 -282 -13z"/>
    <path d="M6245 4566 c-85 -40 -141 -98 -190 -196 -55 -110 -104 -319 -120
    -511 -3 -37 -12 -136 -20 -220 -33 -351 -29 -536 15 -651 61 -163 228 -270
    397 -255 90 9 155 40 213 104 108 118 146 250 223 773 28 193 34 452 12 578
    -28 167 -73 254 -172 333 -71 57 -133 79 -221 79 -56 0 -79 -6 -137 -34z m214
    -317 c39 -39 46 -63 45 -169 -2 -219 -23 -470 -64 -758 -28 -195 -76 -282
    -155 -282 -70 0 -105 59 -105 180 0 144 77 786 111 928 30 124 102 167 168
    101z"/>
    <path d="M3461 4545 c-123 -35 -225 -113 -270 -208 -58 -125 -68 -240 -32
    -380 39 -151 84 -209 331 -428 85 -75 172 -155 194 -177 71 -74 90 -217 40
    -303 -16 -28 -27 -35 -57 -37 -30 -3 -43 2 -66 25 -27 28 -32 41 -61 186 -9
    46 -17 60 -36 67 -24 10 -175 -5 -204 -20 -23 -11 -23 -85 -1 -195 43 -211
    123 -303 300 -345 67 -16 178 -7 236 19 58 25 134 120 176 217 33 77 34 83 33
    204 -2 104 -6 138 -28 206 -46 143 -136 258 -316 403 -215 173 -265 240 -265
    358 0 76 23 113 80 128 35 8 39 7 61 -20 13 -16 32 -59 43 -95 33 -107 77
    -131 202 -110 108 18 114 35 67 209 -29 106 -52 154 -97 204 -80 87 -214 124
    -330 92z"/>
    <path d="M7291 4329 c-169 -28 -260 -132 -326 -374 -97 -357 -137 -626 -138
    -930 -1 -153 38 -257 133 -358 68 -72 151 -106 276 -114 72 -5 88 -3 136 19
    63 29 121 78 153 128 25 41 65 142 100 258 14 45 36 118 49 162 14 44 27 96
    31 117 3 21 10 54 15 73 5 19 19 105 31 190 43 307 2 555 -113 686 -61 70
    -142 121 -217 138 -39 9 -71 15 -73 15 -2 -1 -27 -5 -57 -10z m133 -330 c54
    -42 60 -68 52 -240 -4 -103 -16 -215 -36 -325 -34 -195 -83 -425 -100 -469
    -20 -52 -59 -94 -98 -105 -107 -33 -162 80 -123 256 10 49 22 118 26 154 6 67
    26 177 50 290 8 36 29 132 46 215 33 158 48 193 103 226 39 24 47 24 80 -2z"/>
    <path d="M2650 4287 c-91 -27 -177 -74 -205 -111 -19 -26 -20 -47 -26 -304 -4
    -152 -12 -507 -18 -788 -11 -459 -11 -516 3 -549 l16 -38 50 6 c67 8 160 35
    185 53 18 14 20 26 20 168 0 132 2 157 17 173 19 21 165 67 194 61 13 -2 29
    -39 64 -146 25 -79 52 -148 60 -153 14 -9 87 -6 180 8 53 7 80 29 80 63 0 34
    -44 179 -71 231 -22 44 -89 266 -159 524 -28 105 -82 289 -120 410 -72 233
    -94 304 -110 373 -10 40 -12 42 -48 41 -20 0 -71 -10 -112 -22z m82 -664 c26
    -82 59 -197 73 -257 22 -95 24 -112 11 -130 -15 -24 -116 -60 -129 -47 -16 16
    -29 167 -23 286 3 66 6 159 6 208 0 48 3 87 8 87 4 0 28 -66 54 -147z"/>
    <path d="M2060 4006 c-228 -100 -430 -225 -457 -281 -15 -31 -14 -45 11 -202
    15 -92 36 -213 46 -268 10 -55 26 -144 35 -198 8 -53 28 -163 45 -245 16 -81
    41 -203 55 -272 41 -205 51 -217 162 -181 93 30 147 62 151 88 2 12 -8 57 -21
    100 -37 117 -85 412 -73 456 6 25 81 65 169 91 68 19 80 67 52 201 -19 90 -29
    100 -86 85 -24 -7 -71 -26 -106 -42 -34 -17 -68 -28 -76 -25 -20 8 -38 91 -44
    212 l-6 101 29 19 c15 10 71 35 123 55 133 52 137 58 121 196 -13 113 -22 144
    -43 144 -7 0 -46 -15 -87 -34z"/>
    <path d="M8006 4007 c-13 -9 -30 -75 -66 -252 -26 -132 -51 -265 -55 -295 -8
    -64 -97 -488 -155 -736 -44 -189 -47 -210 -25 -241 16 -23 193 -83 309 -103
    274 -50 433 84 556 470 76 239 84 284 85 455 0 160 -15 247 -60 351 -57 130
    -218 246 -454 328 -118 41 -112 40 -135 23z m279 -418 c100 -69 108 -219 29
    -527 -83 -327 -97 -353 -202 -374 -83 -16 -98 -7 -94 57 1 26 11 62 21 79 11
    17 35 108 55 201 19 94 51 240 71 325 19 85 35 163 35 173 0 28 28 87 41 87 7
    0 27 -10 44 -21z"/>
    <path d="M4656 3808 c-11 -43 -6 -178 8 -212 17 -40 31 -43 252 -52 151 -7
    151 -7 167 17 13 18 17 46 17 116 0 139 4 138 -281 148 -156 5 -157 5 -163
    -17z"/>
  </g>
</svg>